<svg id="Layer_1" data-name="Layer 1" xmlns="http://www.w3.org/2000/svg" width="19" height="34" viewBox="0 0 19 34"><path d="M16.4,24.9l-2.5-4a16.4,16.4,0,0,0,.8-5v-.6a9.5,9.5,0,0,0-3.3-7.4A8.5,8.5,0,0,1,10,6h0l.6-.2a.9.9,0,0,0,.3-.7V4.9l-1-.2V3.9c.1-.2.1-.2.3-.2h0c.2,0,.3-.1.3-.2a.4.4,0,0,0-.1-.5h-.1a6.2,6.2,0,0,1-.5-1.8c0-.4-.1-.5-.2-.6H9.4c0,.1-.2.1-.2.6a6.9,6.9,0,0,1-.5,1.8h0a.8.8,0,0,0-.2.4.1.1,0,0,0,.1.1.2.2,0,0,0,.2.2h.1c.2,0,.2,0,.2.2s.1.3.1.5-.1.2-.1.3l-.9.2v.2a1,1,0,0,0,.4.7L9,6H9A4.5,4.5,0,0,1,7.5,7.9a9.8,9.8,0,0,0-3.2,7.4v.6a16.4,16.4,0,0,0,.8,5l-2.5,4L1.2,33.5H2.8l1.6-5.4L7,25.9h.4a5.6,5.6,0,0,0,.1.7c0,.2.1.5,1.3.6v6.2h1.4V27.3c1.3-.1,1.3-.4,1.4-.6a2.3,2.3,0,0,1,.1-.7H12l2.6,2.2,1.6,5.4h1.6Z" fill="#b4fff4"/></svg>