<svg xmlns="http://www.w3.org/2000/svg" width="19" height="34" viewBox="0 0 19 34"><path fill="#b4fff4" d="M16.4 24.9l-2.5-4a16.4 16.4 0 0 0 .8-5v-.6a9.5 9.5 0 0 0-3.3-7.4A8.5 8.5 0 0 1 10 6l.6-.2a.9.9 0 0 0 .3-.7v-.2l-1-.2v-.8c.1-.2.1-.2.3-.2.2 0 .3-.1.3-.2a.4.4 0 0 0-.1-.5h-.1a6.2 6.2 0 0 1-.5-1.8c0-.4-.1-.5-.2-.6h-.2c0 .1-.2.1-.2.6A6.9 6.9 0 0 1 8.7 3a.8.8 0 0 0-.2.4.1.1 0 0 0 .1.1.2.2 0 0 0 .2.2h.1c.2 0 .2 0 .2.2s.1.3.1.5-.1.2-.1.3l-.9.2v.2a1 1 0 0 0 .4.7L9 6a4.5 4.5 0 0 1-1.5 1.9 9.8 9.8 0 0 0-3.2 7.4v.6a16.4 16.4 0 0 0 .8 5l-2.5 4-1.4 8.6h1.6l1.6-5.4L7 25.9h.4a5.6 5.6 0 0 0 .1.7c0 .2.1.5 1.3.6v6.2h1.4v-6.1c1.3-.1 1.3-.4 1.4-.6a2.3 2.3 0 0 1 .1-.7h.3l2.6 2.2 1.6 5.4h1.6z"/></svg>